<svg xmlns="http://www.w3.org/2000/svg" xmlns:xlink="http://www.w3.org/1999/xlink" width="1920" zoomAndPan="magnify" viewBox="0 0 1440 809.999993" height="1080" preserveAspectRatio="xMidYMid meet" version="1.0"><defs><g/><clipPath id="b308e6905d"><rect x="0" width="866" y="0" height="750"/></clipPath><clipPath id="16fcdef4ed"><path d="M 0 317.914062 L 1440 317.914062 L 1440 492.417969 L 0 492.417969 Z M 0 317.914062 " clip-rule="nonzero"/></clipPath><clipPath id="6d1d565d81"><path d="M 0 0.914062 L 1440 0.914062 L 1440 175.417969 L 0 175.417969 Z M 0 0.914062 " clip-rule="nonzero"/></clipPath><clipPath id="297bb099fc"><rect x="0" width="1440" y="0" height="176"/></clipPath></defs><g transform="matrix(1, 0, 0, 1, 287, 29)"><g clip-path="url(#b308e6905d)"><g fill="#dbb780" fill-opacity="1"><g transform="translate(0.749181, 602.106489)"><g><path d="M 310.078125 -458.015625 L 310.078125 -303.140625 L 297.859375 -303.140625 C 293.890625 -332.859375 286.785156 -356.519531 276.546875 -374.125 C 266.316406 -391.738281 251.734375 -405.71875 232.796875 -416.0625 C 213.867188 -426.414062 194.28125 -431.59375 174.03125 -431.59375 C 151.132812 -431.59375 132.195312 -424.601562 117.21875 -410.625 C 102.25 -396.644531 94.765625 -380.738281 94.765625 -362.90625 C 94.765625 -349.257812 99.5 -336.820312 108.96875 -325.59375 C 122.613281 -309.082031 155.085938 -287.066406 206.390625 -259.546875 C 248.210938 -237.097656 276.773438 -219.875 292.078125 -207.875 C 307.378906 -195.875 319.15625 -181.726562 327.40625 -165.4375 C 335.664062 -149.144531 339.796875 -132.082031 339.796875 -114.25 C 339.796875 -80.351562 326.640625 -51.128906 300.328125 -26.578125 C 274.023438 -2.035156 240.179688 10.234375 198.796875 10.234375 C 185.804688 10.234375 173.585938 9.242188 162.140625 7.265625 C 155.316406 6.160156 141.171875 2.144531 119.703125 -4.78125 C 98.234375 -11.71875 84.640625 -15.1875 78.921875 -15.1875 C 73.421875 -15.1875 69.070312 -13.535156 65.875 -10.234375 C 62.6875 -6.929688 60.320312 -0.109375 58.78125 10.234375 L 46.5625 10.234375 L 46.5625 -143.3125 L 58.78125 -143.3125 C 64.5 -111.175781 72.203125 -87.125 81.890625 -71.15625 C 91.578125 -55.195312 106.378906 -41.929688 126.296875 -31.359375 C 146.222656 -20.796875 168.078125 -15.515625 191.859375 -15.515625 C 219.367188 -15.515625 241.101562 -22.78125 257.0625 -37.3125 C 273.03125 -51.84375 281.015625 -69.015625 281.015625 -88.828125 C 281.015625 -99.835938 277.984375 -110.953125 271.921875 -122.171875 C 265.867188 -133.398438 256.460938 -143.859375 243.703125 -153.546875 C 235.117188 -160.148438 211.671875 -174.179688 173.359375 -195.640625 C 135.054688 -217.109375 107.8125 -234.226562 91.625 -247 C 75.445312 -259.769531 63.175781 -273.859375 54.8125 -289.265625 C 46.445312 -304.679688 42.265625 -321.632812 42.265625 -340.125 C 42.265625 -372.257812 54.59375 -399.941406 79.25 -423.171875 C 103.90625 -446.398438 135.273438 -458.015625 173.359375 -458.015625 C 197.140625 -458.015625 222.347656 -452.175781 248.984375 -440.5 C 261.304688 -435 270 -432.25 275.0625 -432.25 C 280.789062 -432.25 285.46875 -433.953125 289.09375 -437.359375 C 292.726562 -440.773438 295.648438 -447.660156 297.859375 -458.015625 Z M 310.078125 -458.015625 "/></g></g><g transform="translate(376.862958, 602.106489)"><g><path d="M 139.015625 -240.0625 L 347.0625 -240.0625 L 347.0625 -368.1875 C 347.0625 -391.082031 345.628906 -406.164062 342.765625 -413.4375 C 340.566406 -418.9375 335.941406 -423.664062 328.890625 -427.625 C 319.429688 -432.90625 309.414062 -435.546875 298.84375 -435.546875 L 283 -435.546875 L 283 -447.765625 L 474.515625 -447.765625 L 474.515625 -435.546875 L 458.671875 -435.546875 C 448.097656 -435.546875 438.082031 -433.015625 428.625 -427.953125 C 421.570312 -424.429688 416.78125 -419.09375 414.25 -411.9375 C 411.71875 -404.789062 410.453125 -390.207031 410.453125 -368.1875 L 410.453125 -79.25 C 410.453125 -56.570312 411.882812 -41.601562 414.75 -34.34375 C 416.945312 -28.84375 421.460938 -24.109375 428.296875 -20.140625 C 437.972656 -14.859375 448.097656 -12.21875 458.671875 -12.21875 L 474.515625 -12.21875 L 474.515625 0 L 283 0 L 283 -12.21875 L 298.84375 -12.21875 C 317.113281 -12.21875 330.429688 -17.613281 338.796875 -28.40625 C 344.304688 -35.445312 347.0625 -52.394531 347.0625 -79.25 L 347.0625 -215.625 L 139.015625 -215.625 L 139.015625 -79.25 C 139.015625 -56.570312 140.445312 -41.601562 143.3125 -34.34375 C 145.507812 -28.84375 150.132812 -24.109375 157.1875 -20.140625 C 166.644531 -14.859375 176.660156 -12.21875 187.234375 -12.21875 L 203.40625 -12.21875 L 203.40625 0 L 11.5625 0 L 11.5625 -12.21875 L 27.40625 -12.21875 C 45.894531 -12.21875 59.320312 -17.613281 67.6875 -28.40625 C 72.976562 -35.445312 75.625 -52.394531 75.625 -79.25 L 75.625 -368.1875 C 75.625 -391.082031 74.191406 -406.164062 71.328125 -413.4375 C 69.128906 -418.9375 64.613281 -423.664062 57.78125 -427.625 C 48.101562 -432.90625 37.976562 -435.546875 27.40625 -435.546875 L 11.5625 -435.546875 L 11.5625 -447.765625 L 203.40625 -447.765625 L 203.40625 -435.546875 L 187.234375 -435.546875 C 176.660156 -435.546875 166.644531 -433.015625 157.1875 -427.953125 C 150.363281 -424.429688 145.628906 -419.09375 142.984375 -411.9375 C 140.335938 -404.789062 139.015625 -390.207031 139.015625 -368.1875 Z M 139.015625 -240.0625 "/></g></g></g></g></g><g clip-path="url(#16fcdef4ed)"><g transform="matrix(1, 0, 0, 1, 0, 317)"><g clip-path="url(#297bb099fc)"><g clip-path="url(#6d1d565d81)"><path fill="#122a4a" d="M -183.285156 0.914062 L 1623.085938 0.914062 L 1623.085938 175.417969 L -183.285156 175.417969 Z M -183.285156 0.914062 " fill-opacity="1" fill-rule="nonzero"/></g></g></g></g><g fill="#dbb780" fill-opacity="1"><g transform="translate(434.257678, 419.165742)"><g><path d="M 37.78125 -15.234375 C 38.039062 -14.972656 38.171875 -14.640625 38.171875 -14.234375 C 38.171875 -13.835938 38.039062 -13.492188 37.78125 -13.203125 C 36.28125 -11.691406 34.484375 -10.226562 32.390625 -8.8125 C 30.304688 -7.40625 28.050781 -6.144531 25.625 -5.03125 C 23.207031 -3.914062 20.75 -3.023438 18.25 -2.359375 C 15.757812 -1.703125 13.363281 -1.375 11.0625 -1.375 C 10.101562 -1.375 9.1875 -1.429688 8.3125 -1.546875 C 6.476562 -1.691406 4.789062 -2.25 3.25 -3.21875 C 1.707031 -4.1875 0.476562 -5.460938 -0.4375 -7.046875 C -0.625 -7.367188 -0.671875 -7.710938 -0.578125 -8.078125 C -0.484375 -8.453125 -0.269531 -8.75 0.0625 -8.96875 C 0.382812 -9.1875 0.738281 -9.25 1.125 -9.15625 C 1.507812 -9.0625 1.8125 -8.851562 2.03125 -8.53125 C 2.84375 -7.46875 3.832031 -6.660156 5 -6.109375 C 6.175781 -5.554688 7.40625 -5.285156 8.6875 -5.296875 C 9.96875 -5.316406 11.195312 -5.660156 12.375 -6.328125 C 13.144531 -6.765625 13.601562 -7.40625 13.75 -8.25 C 13.9375 -9.125 13.71875 -9.894531 13.09375 -10.5625 C 12.46875 -11.21875 11.769531 -11.785156 11 -12.265625 C 9.457031 -13.179688 8.175781 -14.351562 7.15625 -15.78125 C 7.007812 -16.039062 6.785156 -16.1875 6.484375 -16.21875 C 6.191406 -16.257812 5.957031 -16.1875 5.78125 -16 L 1.59375 -12.046875 C 1.1875 -11.679688 0.710938 -11.570312 0.171875 -11.71875 C -0.378906 -11.863281 -0.710938 -12.210938 -0.828125 -12.765625 C -0.972656 -13.304688 -0.828125 -13.78125 -0.390625 -14.1875 L 8.03125 -22.109375 C 8.976562 -23.242188 10.0625 -24.253906 11.28125 -25.140625 C 11.570312 -25.359375 11.910156 -25.445312 12.296875 -25.40625 C 12.679688 -25.375 13 -25.210938 13.25 -24.921875 C 13.507812 -24.617188 13.617188 -24.273438 13.578125 -23.890625 C 13.546875 -23.503906 13.398438 -23.1875 13.140625 -22.9375 L 10.125 -20.125 C 9.644531 -19.582031 9.382812 -18.941406 9.34375 -18.203125 C 9.34375 -17.546875 9.703125 -16.921875 10.421875 -16.328125 C 11.140625 -15.742188 11.882812 -15.175781 12.65625 -14.625 C 13.789062 -13.96875 14.757812 -13.125 15.5625 -12.09375 C 16.1875 -11.21875 16.546875 -10.238281 16.640625 -9.15625 C 16.734375 -8.070312 16.519531 -7.054688 16 -6.109375 C 15.851562 -5.816406 15.890625 -5.539062 16.109375 -5.28125 C 16.296875 -5.019531 16.554688 -4.925781 16.890625 -5 C 24.078125 -6.726562 30.363281 -10.140625 35.75 -15.234375 C 36.007812 -15.523438 36.335938 -15.671875 36.734375 -15.671875 C 37.140625 -15.671875 37.488281 -15.523438 37.78125 -15.234375 Z M 37.78125 -15.234375 "/></g></g></g><g fill="#dbb780" fill-opacity="1"><g transform="translate(468.025186, 419.165742)"><g><path d="M 45.984375 -13.359375 C 46.234375 -13.066406 46.359375 -12.71875 46.359375 -12.3125 C 46.328125 -11.914062 46.164062 -11.585938 45.875 -11.328125 C 45.757812 -11.222656 45.21875 -10.765625 44.25 -9.953125 C 43.28125 -9.148438 41.992188 -8.195312 40.390625 -7.09375 C 38.796875 -5.988281 37 -4.914062 35 -3.875 C 33.007812 -2.832031 30.90625 -2 28.6875 -1.375 C 26.46875 -0.75 24.25 -0.507812 22.03125 -0.65625 C 19.8125 -0.800781 17.691406 -1.535156 15.671875 -2.859375 C 14.128906 -3.847656 12.898438 -5.128906 11.984375 -6.703125 C 11.734375 -7.148438 11.332031 -7.390625 10.78125 -7.421875 C 10.269531 -7.460938 9.863281 -7.257812 9.5625 -6.8125 C 8.757812 -5.601562 7.878906 -4.457031 6.921875 -3.375 C 5.972656 -2.300781 5.003906 -1.429688 4.015625 -0.765625 C 3.023438 -0.109375 2.070312 0.238281 1.15625 0.28125 L 1.09375 0.28125 C 0.4375 0.238281 -0.171875 0.0234375 -0.734375 -0.359375 C -1.304688 -0.742188 -1.722656 -1.25 -1.984375 -1.875 C -3.078125 -4.625 -2.910156 -7.300781 -1.484375 -9.90625 C -0.273438 -12.425781 1.414062 -14.578125 3.59375 -16.359375 C 5.78125 -18.140625 8.25 -19.359375 11 -20.015625 C 11.550781 -20.160156 12.007812 -20.035156 12.375 -19.640625 C 12.78125 -19.234375 12.910156 -18.753906 12.765625 -18.203125 C 12.578125 -17.691406 12.207031 -17.363281 11.65625 -17.21875 C 9.34375 -16.664062 7.269531 -15.644531 5.4375 -14.15625 C 3.601562 -12.675781 2.175781 -10.851562 1.15625 -8.6875 C 0.125 -6.925781 -0.0546875 -5.09375 0.609375 -3.1875 C 0.828125 -2.820312 0.988281 -2.640625 1.09375 -2.640625 C 1.425781 -2.421875 1.921875 -2.648438 2.578125 -3.328125 C 3.242188 -4.003906 4 -4.960938 4.84375 -6.203125 C 5.6875 -7.453125 6.519531 -8.828125 7.34375 -10.328125 C 8.164062 -11.835938 8.90625 -13.304688 9.5625 -14.734375 C 9.863281 -15.398438 10.378906 -15.675781 11.109375 -15.5625 C 11.804688 -15.457031 12.207031 -15.054688 12.3125 -14.359375 C 12.3125 -14.316406 12.382812 -13.957031 12.53125 -13.28125 C 12.6875 -12.601562 12.945312 -11.769531 13.3125 -10.78125 C 13.675781 -9.789062 14.175781 -8.789062 14.8125 -7.78125 C 15.457031 -6.769531 16.273438 -5.9375 17.265625 -5.28125 C 18.953125 -4.144531 20.773438 -3.546875 22.734375 -3.484375 C 24.703125 -3.429688 26.675781 -3.722656 28.65625 -4.359375 C 30.632812 -5.003906 32.53125 -5.8125 34.34375 -6.78125 C 36.15625 -7.757812 37.773438 -8.757812 39.203125 -9.78125 C 40.640625 -10.8125 41.78125 -11.675781 42.625 -12.375 C 43.46875 -13.070312 43.90625 -13.4375 43.9375 -13.46875 C 44.238281 -13.726562 44.585938 -13.847656 44.984375 -13.828125 C 45.390625 -13.816406 45.722656 -13.660156 45.984375 -13.359375 Z M 45.984375 -13.359375 "/></g></g></g><g fill="#dbb780" fill-opacity="1"><g transform="translate(512.461963, 419.165742)"><g><path d="M 60.328125 -13.96875 C 60.660156 -13.707031 60.84375 -13.382812 60.875 -13 C 60.914062 -12.625 60.828125 -12.269531 60.609375 -11.9375 C 60.492188 -11.820312 60.078125 -11.367188 59.359375 -10.578125 C 58.648438 -9.796875 57.679688 -8.84375 56.453125 -7.71875 C 55.222656 -6.601562 53.800781 -5.503906 52.1875 -4.421875 C 50.582031 -3.347656 48.816406 -2.441406 46.890625 -1.703125 C 44.960938 -0.972656 42.953125 -0.609375 40.859375 -0.609375 C 38.109375 -0.609375 35.5625 -1.300781 33.21875 -2.6875 C 31.164062 -4.007812 29.695312 -5.789062 28.8125 -8.03125 C 28.269531 -9.164062 27.84375 -9.894531 27.53125 -10.21875 C 27.21875 -10.550781 26.726562 -10.664062 26.0625 -10.5625 C 25.59375 -10.488281 24.867188 -10.054688 23.890625 -9.265625 C 22.921875 -8.472656 21.882812 -7.484375 20.78125 -6.296875 C 19.6875 -5.109375 18.773438 -3.867188 18.046875 -2.578125 C 17.640625 -1.921875 17.085938 -1.703125 16.390625 -1.921875 C 15.660156 -2.140625 15.3125 -2.632812 15.34375 -3.40625 C 15.457031 -5.789062 15.128906 -7.6875 14.359375 -9.09375 C 13.585938 -10.507812 12.832031 -11.273438 12.09375 -11.390625 C 11.695312 -11.460938 11.164062 -11.414062 10.5 -11.25 C 9.84375 -11.082031 9.019531 -10.664062 8.03125 -10 C 7.039062 -9.34375 5.847656 -8.335938 4.453125 -6.984375 C 3.054688 -5.628906 1.441406 -3.796875 -0.390625 -1.484375 C -0.859375 -0.898438 -1.441406 -0.769531 -2.140625 -1.09375 C -2.835938 -1.425781 -3.097656 -1.957031 -2.921875 -2.6875 L -0.28125 -14.296875 C -0.207031 -14.703125 0 -15.015625 0.34375 -15.234375 C 0.695312 -15.453125 1.0625 -15.507812 1.4375 -15.40625 C 1.832031 -15.332031 2.140625 -15.117188 2.359375 -14.765625 C 2.578125 -14.421875 2.632812 -14.0625 2.53125 -13.6875 C 2.53125 -13.6875 2.472656 -13.457031 2.359375 -13 C 2.253906 -12.539062 2.132812 -12.007812 2 -11.40625 C 1.875 -10.800781 1.753906 -10.257812 1.640625 -9.78125 C 1.535156 -9.3125 1.484375 -9.039062 1.484375 -8.96875 C 1.453125 -8.75 1.515625 -8.617188 1.671875 -8.578125 C 1.835938 -8.546875 1.992188 -8.601562 2.140625 -8.75 C 3.753906 -10.289062 5.15625 -11.460938 6.34375 -12.265625 C 7.539062 -13.066406 8.578125 -13.597656 9.453125 -13.859375 C 10.335938 -14.117188 11.097656 -14.226562 11.734375 -14.1875 C 12.378906 -14.15625 12.941406 -14.082031 13.421875 -13.96875 C 14.554688 -13.457031 15.515625 -12.707031 16.296875 -11.71875 C 17.085938 -10.726562 17.578125 -9.609375 17.765625 -8.359375 C 17.796875 -8.171875 17.90625 -8.0625 18.09375 -8.03125 C 18.3125 -7.957031 18.476562 -7.992188 18.59375 -8.140625 C 19.757812 -9.460938 20.992188 -10.632812 22.296875 -11.65625 C 23.597656 -12.6875 24.707031 -13.273438 25.625 -13.421875 C 26.800781 -13.597656 27.742188 -13.484375 28.453125 -13.078125 C 29.171875 -12.679688 29.757812 -12.132812 30.21875 -11.4375 C 30.675781 -10.738281 31.070312 -10.039062 31.40625 -9.34375 C 32.0625 -7.625 33.144531 -6.25 34.65625 -5.21875 C 36.5625 -4.125 38.457031 -3.554688 40.34375 -3.515625 C 42.226562 -3.484375 44.050781 -3.796875 45.8125 -4.453125 C 47.570312 -5.109375 49.203125 -5.941406 50.703125 -6.953125 C 52.210938 -7.960938 53.535156 -8.988281 54.671875 -10.03125 C 55.804688 -11.082031 56.691406 -11.960938 57.328125 -12.671875 C 57.972656 -13.390625 58.316406 -13.75 58.359375 -13.75 C 58.578125 -14.082031 58.882812 -14.265625 59.28125 -14.296875 C 59.6875 -14.335938 60.035156 -14.226562 60.328125 -13.96875 Z M 60.328125 -13.96875 "/></g></g></g><g fill="#dbb780" fill-opacity="1"><g transform="translate(570.372761, 419.165742)"><g><path d="M 45.984375 -13.359375 C 46.234375 -13.066406 46.359375 -12.71875 46.359375 -12.3125 C 46.328125 -11.914062 46.164062 -11.585938 45.875 -11.328125 C 45.757812 -11.222656 45.21875 -10.765625 44.25 -9.953125 C 43.28125 -9.148438 41.992188 -8.195312 40.390625 -7.09375 C 38.796875 -5.988281 37 -4.914062 35 -3.875 C 33.007812 -2.832031 30.90625 -2 28.6875 -1.375 C 26.46875 -0.75 24.25 -0.507812 22.03125 -0.65625 C 19.8125 -0.800781 17.691406 -1.535156 15.671875 -2.859375 C 14.128906 -3.847656 12.898438 -5.128906 11.984375 -6.703125 C 11.734375 -7.148438 11.332031 -7.390625 10.78125 -7.421875 C 10.269531 -7.460938 9.863281 -7.257812 9.5625 -6.8125 C 8.757812 -5.601562 7.878906 -4.457031 6.921875 -3.375 C 5.972656 -2.300781 5.003906 -1.429688 4.015625 -0.765625 C 3.023438 -0.109375 2.070312 0.238281 1.15625 0.28125 L 1.09375 0.28125 C 0.4375 0.238281 -0.171875 0.0234375 -0.734375 -0.359375 C -1.304688 -0.742188 -1.722656 -1.25 -1.984375 -1.875 C -3.078125 -4.625 -2.910156 -7.300781 -1.484375 -9.90625 C -0.273438 -12.425781 1.414062 -14.578125 3.59375 -16.359375 C 5.78125 -18.140625 8.25 -19.359375 11 -20.015625 C 11.550781 -20.160156 12.007812 -20.035156 12.375 -19.640625 C 12.78125 -19.234375 12.910156 -18.753906 12.765625 -18.203125 C 12.578125 -17.691406 12.207031 -17.363281 11.65625 -17.21875 C 9.34375 -16.664062 7.269531 -15.644531 5.4375 -14.15625 C 3.601562 -12.675781 2.175781 -10.851562 1.15625 -8.6875 C 0.125 -6.925781 -0.0546875 -5.09375 0.609375 -3.1875 C 0.828125 -2.820312 0.988281 -2.640625 1.09375 -2.640625 C 1.425781 -2.421875 1.921875 -2.648438 2.578125 -3.328125 C 3.242188 -4.003906 4 -4.960938 4.84375 -6.203125 C 5.6875 -7.453125 6.519531 -8.828125 7.34375 -10.328125 C 8.164062 -11.835938 8.90625 -13.304688 9.5625 -14.734375 C 9.863281 -15.398438 10.378906 -15.675781 11.109375 -15.5625 C 11.804688 -15.457031 12.207031 -15.054688 12.3125 -14.359375 C 12.3125 -14.316406 12.382812 -13.957031 12.53125 -13.28125 C 12.6875 -12.601562 12.945312 -11.769531 13.3125 -10.78125 C 13.675781 -9.789062 14.175781 -8.789062 14.8125 -7.78125 C 15.457031 -6.769531 16.273438 -5.9375 17.265625 -5.28125 C 18.953125 -4.144531 20.773438 -3.546875 22.734375 -3.484375 C 24.703125 -3.429688 26.675781 -3.722656 28.65625 -4.359375 C 30.632812 -5.003906 32.53125 -5.8125 34.34375 -6.78125 C 36.15625 -7.757812 37.773438 -8.757812 39.203125 -9.78125 C 40.640625 -10.8125 41.78125 -11.675781 42.625 -12.375 C 43.46875 -13.070312 43.90625 -13.4375 43.9375 -13.46875 C 44.238281 -13.726562 44.585938 -13.847656 44.984375 -13.828125 C 45.390625 -13.816406 45.722656 -13.660156 45.984375 -13.359375 Z M 45.984375 -13.359375 "/></g></g></g><g fill="#dbb780" fill-opacity="1"><g transform="translate(614.809538, 419.165742)"><g><path d="M 47.46875 -14.46875 C 47.71875 -14.175781 47.84375 -13.84375 47.84375 -13.46875 C 47.84375 -13.070312 47.695312 -12.726562 47.40625 -12.4375 C 45.5 -10.5625 43.375 -8.953125 41.03125 -7.609375 C 38.6875 -6.273438 36.253906 -5.164062 33.734375 -4.28125 C 31.222656 -3.40625 28.785156 -2.753906 26.421875 -2.328125 C 24.054688 -1.910156 21.90625 -1.703125 19.96875 -1.703125 C 17.875 -1.597656 15.859375 -1.984375 13.921875 -2.859375 C 12.597656 -3.628906 11.707031 -4.472656 11.25 -5.390625 C 10.789062 -6.304688 10.597656 -7.25 10.671875 -8.21875 C 10.742188 -9.195312 10.953125 -10.113281 11.296875 -10.96875 C 11.648438 -11.832031 11.988281 -12.578125 12.3125 -13.203125 C 12.394531 -13.347656 12.359375 -13.457031 12.203125 -13.53125 C 12.054688 -13.601562 11.800781 -13.546875 11.4375 -13.359375 C 9.425781 -12.265625 7.265625 -11.769531 4.953125 -11.875 C 3.921875 -11.84375 2.910156 -12.046875 1.921875 -12.484375 C 1.554688 -12.367188 1.191406 -12.40625 0.828125 -12.59375 C 0.234375 -12.882812 -0.0195312 -13.363281 0.0625 -14.03125 C -0.488281 -14.6875 -0.875 -15.4375 -1.09375 -16.28125 C -1.539062 -17.78125 -1.503906 -19.265625 -0.984375 -20.734375 C -0.472656 -22.203125 0.421875 -23.410156 1.703125 -24.359375 C 3.242188 -25.273438 4.453125 -25.3125 5.328125 -24.46875 C 5.441406 -24.363281 5.582031 -24.171875 5.75 -23.890625 C 5.914062 -23.617188 6.015625 -23.1875 6.046875 -22.59375 C 6.085938 -22.007812 5.96875 -21.1875 5.6875 -20.125 C 5.414062 -19.0625 4.894531 -17.671875 4.125 -15.953125 C 4.050781 -15.804688 4.101562 -15.566406 4.28125 -15.234375 C 4.46875 -14.898438 4.691406 -14.734375 4.953125 -14.734375 C 7.078125 -14.734375 9.070312 -15.265625 10.9375 -16.328125 C 11.5625 -16.660156 12.222656 -16.9375 12.921875 -17.15625 C 13.617188 -17.375 14.351562 -17.191406 15.125 -16.609375 C 15.894531 -16.023438 16.148438 -15.300781 15.890625 -14.4375 C 15.640625 -13.570312 15.3125 -12.738281 14.90625 -11.9375 C 14.0625 -10.207031 13.617188 -8.859375 13.578125 -7.890625 C 13.546875 -6.921875 14.15625 -6.066406 15.40625 -5.328125 C 16.09375 -4.929688 17.269531 -4.6875 18.9375 -4.59375 C 20.613281 -4.5 22.5625 -4.625 24.78125 -4.96875 C 27 -5.320312 29.332031 -5.890625 31.78125 -6.671875 C 34.238281 -7.460938 36.640625 -8.5 38.984375 -9.78125 C 41.335938 -11.070312 43.46875 -12.648438 45.375 -14.515625 C 45.664062 -14.773438 46.015625 -14.90625 46.421875 -14.90625 C 46.828125 -14.90625 47.175781 -14.757812 47.46875 -14.46875 Z M 1.59375 -17.484375 C 2.25 -18.878906 2.765625 -20.328125 3.140625 -21.828125 C 1.773438 -20.660156 1.257812 -19.210938 1.59375 -17.484375 Z M 1.59375 -17.484375 "/></g></g></g><g fill="#dbb780" fill-opacity="1"><g transform="translate(659.906273, 419.165742)"><g><path d="M 37.78125 -14.953125 C 38.070312 -14.703125 38.21875 -14.375 38.21875 -13.96875 C 38.21875 -13.5625 38.070312 -13.210938 37.78125 -12.921875 C 37.675781 -12.816406 37.144531 -12.3125 36.1875 -11.40625 C 35.238281 -10.507812 33.972656 -9.425781 32.390625 -8.15625 C 30.816406 -6.894531 29.03125 -5.648438 27.03125 -4.421875 C 25.03125 -3.191406 22.9375 -2.15625 20.75 -1.3125 C 18.570312 -0.476562 16.382812 -0.0625 14.1875 -0.0625 C 12.6875 -0.0625 11.203125 -0.332031 9.734375 -0.875 C 6.429688 -2.125 3.992188 -4.894531 2.421875 -9.1875 C 0.847656 -13.476562 0.257812 -18.90625 0.65625 -25.46875 C 0.625 -25.757812 0.5 -26 0.28125 -26.1875 C 0.0507812 -26.363281 -0.207031 -26.4375 -0.5 -26.40625 C -3.28125 -26.175781 -5.804688 -25.976562 -8.078125 -25.8125 C -10.359375 -25.65625 -12.175781 -25.53125 -13.53125 -25.4375 C -14.882812 -25.34375 -15.597656 -25.296875 -15.671875 -25.296875 L -15.78125 -25.296875 C -16.1875 -25.265625 -16.535156 -25.382812 -16.828125 -25.65625 C -17.117188 -25.925781 -17.265625 -26.265625 -17.265625 -26.671875 C -17.265625 -27.078125 -17.132812 -27.425781 -16.875 -27.71875 C -16.625 -28.007812 -16.296875 -28.15625 -15.890625 -28.15625 C -15.816406 -28.15625 -15.066406 -28.207031 -13.640625 -28.3125 C -12.210938 -28.425781 -10.304688 -28.578125 -7.921875 -28.765625 C -5.535156 -28.953125 -2.894531 -29.132812 0 -29.3125 C 0.332031 -29.351562 0.597656 -29.519531 0.796875 -29.8125 C 0.992188 -30.101562 1.128906 -30.453125 1.203125 -30.859375 C 1.535156 -33.015625 1.96875 -35.21875 2.5 -37.46875 C 3.03125 -39.726562 3.644531 -41.828125 4.34375 -43.765625 C 5.039062 -45.710938 5.828125 -47.316406 6.703125 -48.578125 C 7.585938 -49.847656 8.523438 -50.59375 9.515625 -50.8125 C 9.921875 -50.894531 10.460938 -50.832031 11.140625 -50.625 C 11.816406 -50.425781 12.429688 -49.757812 12.984375 -48.625 C 13.378906 -47.851562 13.46875 -46.554688 13.25 -44.734375 C 13.03125 -42.921875 12.585938 -40.820312 11.921875 -38.4375 C 11.265625 -36.0625 10.5 -33.609375 9.625 -31.078125 C 9.4375 -30.597656 9.425781 -30.289062 9.59375 -30.15625 C 9.757812 -30.03125 9.898438 -29.96875 10.015625 -29.96875 C 13.566406 -30.195312 16.945312 -30.382812 20.15625 -30.53125 C 23.363281 -30.675781 26.03125 -30.75 28.15625 -30.75 C 28.5625 -30.75 28.898438 -30.597656 29.171875 -30.296875 C 29.453125 -30.003906 29.59375 -29.675781 29.59375 -29.3125 C 29.59375 -28.90625 29.453125 -28.554688 29.171875 -28.265625 C 28.898438 -27.972656 28.5625 -27.828125 28.15625 -27.828125 C 25.957031 -27.828125 23.144531 -27.757812 19.71875 -27.625 C 16.289062 -27.5 12.722656 -27.289062 9.015625 -27 C 8.691406 -27 8.460938 -26.960938 8.328125 -26.890625 C 8.203125 -26.816406 8.082031 -26.65625 7.96875 -26.40625 C 7.195312 -24.125 6.4375 -22.019531 5.6875 -20.09375 C 4.9375 -18.175781 4.320312 -16.628906 3.84375 -15.453125 C 4.070312 -13.734375 4.453125 -12.070312 4.984375 -10.46875 C 5.515625 -8.875 6.242188 -7.460938 7.171875 -6.234375 C 8.109375 -5.015625 9.3125 -4.128906 10.78125 -3.578125 C 12.425781 -2.953125 14.179688 -2.785156 16.046875 -3.078125 C 17.921875 -3.367188 19.785156 -3.945312 21.640625 -4.8125 C 23.492188 -5.675781 25.253906 -6.664062 26.921875 -7.78125 C 28.585938 -8.894531 30.082031 -10.003906 31.40625 -11.109375 C 32.726562 -12.210938 33.769531 -13.117188 34.53125 -13.828125 C 35.300781 -14.546875 35.707031 -14.921875 35.75 -14.953125 C 36.007812 -15.253906 36.335938 -15.40625 36.734375 -15.40625 C 37.140625 -15.40625 37.488281 -15.253906 37.78125 -14.953125 Z M 4.125 -30.90625 C 4.082031 -30.6875 4.0625 -30.421875 4.0625 -30.109375 C 4.0625 -29.796875 4.210938 -29.640625 4.515625 -29.640625 C 4.804688 -29.640625 5.097656 -29.660156 5.390625 -29.703125 C 5.941406 -29.734375 6.269531 -30.046875 6.375 -30.640625 C 7.332031 -33.390625 8.148438 -35.945312 8.828125 -38.3125 C 9.503906 -40.675781 9.988281 -42.644531 10.28125 -44.21875 C 10.570312 -45.789062 10.609375 -46.816406 10.390625 -47.296875 C 10.316406 -47.515625 10.171875 -47.660156 9.953125 -47.734375 C 9.734375 -47.773438 9.550781 -47.722656 9.40625 -47.578125 C 8.894531 -47.023438 8.304688 -45.957031 7.640625 -44.375 C 6.984375 -42.800781 6.332031 -40.859375 5.6875 -38.546875 C 5.050781 -36.242188 4.53125 -33.695312 4.125 -30.90625 Z M 3.40625 -22.328125 C 3.550781 -22.328125 3.742188 -22.53125 3.984375 -22.9375 C 4.222656 -23.34375 4.441406 -23.816406 4.640625 -24.359375 C 4.847656 -24.910156 4.992188 -25.425781 5.078125 -25.90625 C 5.171875 -26.382812 5.164062 -26.675781 5.0625 -26.78125 C 4.550781 -27.039062 4.070312 -27.003906 3.625 -26.671875 C 3.476562 -26.523438 3.367188 -26.222656 3.296875 -25.765625 C 3.222656 -25.304688 3.164062 -24.8125 3.125 -24.28125 C 3.09375 -23.75 3.101562 -23.289062 3.15625 -22.90625 C 3.21875 -22.519531 3.300781 -22.328125 3.40625 -22.328125 Z M 3.40625 -22.328125 "/></g></g></g><g fill="#dbb780" fill-opacity="1"><g transform="translate(695.04872, 419.165742)"><g><path d="M 43.390625 -13.203125 C 43.648438 -12.910156 43.769531 -12.5625 43.75 -12.15625 C 43.726562 -11.75 43.570312 -11.421875 43.28125 -11.171875 C 43.175781 -11.054688 42.664062 -10.628906 41.75 -9.890625 C 40.832031 -9.160156 39.613281 -8.28125 38.09375 -7.25 C 36.570312 -6.226562 34.875 -5.238281 33 -4.28125 C 31.125 -3.332031 29.171875 -2.597656 27.140625 -2.078125 C 25.109375 -1.566406 23.140625 -1.460938 21.234375 -1.765625 C 19.546875 -2.054688 18.003906 -2.6875 16.609375 -3.65625 C 15.210938 -4.625 14.113281 -5.84375 13.3125 -7.3125 C 12.6875 -8.445312 11.75 -9.070312 10.5 -9.1875 C 9.988281 -9.21875 9.242188 -9.039062 8.265625 -8.65625 C 7.296875 -8.269531 6.097656 -7.414062 4.671875 -6.09375 C 3.242188 -4.78125 1.59375 -2.769531 -0.28125 -0.0625 C -0.675781 0.53125 -1.222656 0.695312 -1.921875 0.4375 C -2.617188 0.1875 -2.929688 -0.304688 -2.859375 -1.046875 C -2.742188 -2.441406 -2.539062 -4.054688 -2.25 -5.890625 C -1.957031 -7.722656 -1.609375 -9.664062 -1.203125 -11.71875 C -1.578125 -12.269531 -1.5625 -12.816406 -1.15625 -13.359375 L -0.765625 -13.921875 C -0.328125 -16.148438 0.171875 -18.4375 0.734375 -20.78125 C 1.304688 -23.132812 1.921875 -25.410156 2.578125 -27.609375 C 3.609375 -31.316406 4.5625 -34.359375 5.4375 -36.734375 C 6.320312 -39.117188 7.128906 -41.015625 7.859375 -42.421875 C 8.597656 -43.835938 9.25 -44.882812 9.8125 -45.5625 C 10.382812 -46.238281 10.863281 -46.6875 11.25 -46.90625 C 11.632812 -47.132812 11.9375 -47.285156 12.15625 -47.359375 C 12.78125 -47.535156 13.382812 -47.523438 13.96875 -47.328125 C 14.550781 -47.128906 15.046875 -46.769531 15.453125 -46.25 C 16.335938 -45.1875 16.75 -43.785156 16.6875 -42.046875 C 16.632812 -40.304688 16.234375 -38.375 15.484375 -36.25 C 14.734375 -34.125 13.78125 -31.929688 12.625 -29.671875 C 11.46875 -27.421875 10.238281 -25.238281 8.9375 -23.125 C 7.632812 -21.019531 6.382812 -19.09375 5.1875 -17.34375 C 4 -15.601562 3.019531 -14.203125 2.25 -13.140625 C 2.21875 -13.140625 2.132812 -13.007812 2 -12.75 C 1.875 -12.5 1.8125 -12.410156 1.8125 -12.484375 C 1.78125 -12.148438 1.695312 -11.679688 1.5625 -11.078125 C 1.4375 -10.472656 1.316406 -9.867188 1.203125 -9.265625 C 1.097656 -8.660156 1.007812 -8.175781 0.9375 -7.8125 C 0.894531 -7.550781 1.003906 -7.367188 1.265625 -7.265625 C 1.484375 -7.148438 1.6875 -7.1875 1.875 -7.375 C 5.0625 -10.707031 8.007812 -12.265625 10.71875 -12.046875 C 13 -11.859375 14.6875 -10.757812 15.78125 -8.75 C 17.0625 -6.394531 19.023438 -5.019531 21.671875 -4.625 C 23.316406 -4.363281 25.046875 -4.488281 26.859375 -5 C 28.679688 -5.519531 30.441406 -6.21875 32.140625 -7.09375 C 33.847656 -7.976562 35.390625 -8.894531 36.765625 -9.84375 C 38.140625 -10.800781 39.25 -11.609375 40.09375 -12.265625 C 40.9375 -12.921875 41.359375 -13.269531 41.359375 -13.3125 C 41.648438 -13.5625 42 -13.675781 42.40625 -13.65625 C 42.8125 -13.644531 43.140625 -13.492188 43.390625 -13.203125 Z M 12.984375 -44.609375 C 12.648438 -44.609375 12.21875 -44.1875 11.6875 -43.34375 C 11.15625 -42.5 10.554688 -41.367188 9.890625 -39.953125 C 9.234375 -38.546875 8.566406 -36.988281 7.890625 -35.28125 C 7.210938 -33.570312 6.578125 -31.859375 5.984375 -30.140625 C 5.398438 -28.421875 4.890625 -26.828125 4.453125 -25.359375 C 4.015625 -23.890625 3.710938 -22.6875 3.546875 -21.75 C 3.378906 -20.8125 3.390625 -20.289062 3.578125 -20.1875 C 3.753906 -20.070312 4.109375 -20.375 4.640625 -21.09375 C 5.171875 -21.8125 5.796875 -22.8125 6.515625 -24.09375 C 7.234375 -25.375 7.984375 -26.820312 8.765625 -28.4375 C 9.554688 -30.050781 10.289062 -31.703125 10.96875 -33.390625 C 11.644531 -35.078125 12.222656 -36.679688 12.703125 -38.203125 C 13.179688 -39.722656 13.484375 -41.03125 13.609375 -42.125 C 13.742188 -43.226562 13.609375 -44 13.203125 -44.4375 C 13.160156 -44.476562 13.128906 -44.515625 13.109375 -44.546875 C 13.097656 -44.585938 13.054688 -44.609375 12.984375 -44.609375 Z M 12.984375 -44.609375 "/></g></g></g><g fill="#dbb780" fill-opacity="1"><g transform="translate(736.625722, 419.165742)"><g/></g></g><g fill="#dbb780" fill-opacity="1"><g transform="translate(757.084232, 419.165742)"><g><path d="M 43.390625 -13.203125 C 43.648438 -12.910156 43.769531 -12.5625 43.75 -12.15625 C 43.726562 -11.75 43.570312 -11.421875 43.28125 -11.171875 C 43.175781 -11.054688 42.664062 -10.628906 41.75 -9.890625 C 40.832031 -9.160156 39.613281 -8.28125 38.09375 -7.25 C 36.570312 -6.226562 34.875 -5.238281 33 -4.28125 C 31.125 -3.332031 29.171875 -2.597656 27.140625 -2.078125 C 25.109375 -1.566406 23.140625 -1.460938 21.234375 -1.765625 C 19.546875 -2.054688 18.003906 -2.6875 16.609375 -3.65625 C 15.210938 -4.625 14.113281 -5.84375 13.3125 -7.3125 C 12.6875 -8.445312 11.75 -9.070312 10.5 -9.1875 C 9.988281 -9.21875 9.242188 -9.039062 8.265625 -8.65625 C 7.296875 -8.269531 6.097656 -7.414062 4.671875 -6.09375 C 3.242188 -4.78125 1.59375 -2.769531 -0.28125 -0.0625 C -0.675781 0.53125 -1.222656 0.695312 -1.921875 0.4375 C -2.617188 0.1875 -2.929688 -0.304688 -2.859375 -1.046875 C -2.742188 -2.441406 -2.539062 -4.054688 -2.25 -5.890625 C -1.957031 -7.722656 -1.609375 -9.664062 -1.203125 -11.71875 C -1.578125 -12.269531 -1.5625 -12.816406 -1.15625 -13.359375 L -0.765625 -13.921875 C -0.328125 -16.148438 0.171875 -18.4375 0.734375 -20.78125 C 1.304688 -23.132812 1.921875 -25.410156 2.578125 -27.609375 C 3.609375 -31.316406 4.5625 -34.359375 5.4375 -36.734375 C 6.320312 -39.117188 7.128906 -41.015625 7.859375 -42.421875 C 8.597656 -43.835938 9.25 -44.882812 9.8125 -45.5625 C 10.382812 -46.238281 10.863281 -46.6875 11.25 -46.90625 C 11.632812 -47.132812 11.9375 -47.285156 12.15625 -47.359375 C 12.78125 -47.535156 13.382812 -47.523438 13.96875 -47.328125 C 14.550781 -47.128906 15.046875 -46.769531 15.453125 -46.25 C 16.335938 -45.1875 16.75 -43.785156 16.6875 -42.046875 C 16.632812 -40.304688 16.234375 -38.375 15.484375 -36.25 C 14.734375 -34.125 13.78125 -31.929688 12.625 -29.671875 C 11.46875 -27.421875 10.238281 -25.238281 8.9375 -23.125 C 7.632812 -21.019531 6.382812 -19.09375 5.1875 -17.34375 C 4 -15.601562 3.019531 -14.203125 2.25 -13.140625 C 2.21875 -13.140625 2.132812 -13.007812 2 -12.75 C 1.875 -12.5 1.8125 -12.410156 1.8125 -12.484375 C 1.78125 -12.148438 1.695312 -11.679688 1.5625 -11.078125 C 1.4375 -10.472656 1.316406 -9.867188 1.203125 -9.265625 C 1.097656 -8.660156 1.007812 -8.175781 0.9375 -7.8125 C 0.894531 -7.550781 1.003906 -7.367188 1.265625 -7.265625 C 1.484375 -7.148438 1.6875 -7.1875 1.875 -7.375 C 5.0625 -10.707031 8.007812 -12.265625 10.71875 -12.046875 C 13 -11.859375 14.6875 -10.757812 15.78125 -8.75 C 17.0625 -6.394531 19.023438 -5.019531 21.671875 -4.625 C 23.316406 -4.363281 25.046875 -4.488281 26.859375 -5 C 28.679688 -5.519531 30.441406 -6.21875 32.140625 -7.09375 C 33.847656 -7.976562 35.390625 -8.894531 36.765625 -9.84375 C 38.140625 -10.800781 39.25 -11.609375 40.09375 -12.265625 C 40.9375 -12.921875 41.359375 -13.269531 41.359375 -13.3125 C 41.648438 -13.5625 42 -13.675781 42.40625 -13.65625 C 42.8125 -13.644531 43.140625 -13.492188 43.390625 -13.203125 Z M 12.984375 -44.609375 C 12.648438 -44.609375 12.21875 -44.1875 11.6875 -43.34375 C 11.15625 -42.5 10.554688 -41.367188 9.890625 -39.953125 C 9.234375 -38.546875 8.566406 -36.988281 7.890625 -35.28125 C 7.210938 -33.570312 6.578125 -31.859375 5.984375 -30.140625 C 5.398438 -28.421875 4.890625 -26.828125 4.453125 -25.359375 C 4.015625 -23.890625 3.710938 -22.6875 3.546875 -21.75 C 3.378906 -20.8125 3.390625 -20.289062 3.578125 -20.1875 C 3.753906 -20.070312 4.109375 -20.375 4.640625 -21.09375 C 5.171875 -21.8125 5.796875 -22.8125 6.515625 -24.09375 C 7.234375 -25.375 7.984375 -26.820312 8.765625 -28.4375 C 9.554688 -30.050781 10.289062 -31.703125 10.96875 -33.390625 C 11.644531 -35.078125 12.222656 -36.679688 12.703125 -38.203125 C 13.179688 -39.722656 13.484375 -41.03125 13.609375 -42.125 C 13.742188 -43.226562 13.609375 -44 13.203125 -44.4375 C 13.160156 -44.476562 13.128906 -44.515625 13.109375 -44.546875 C 13.097656 -44.585938 13.054688 -44.609375 12.984375 -44.609375 Z M 12.984375 -44.609375 "/></g></g></g><g fill="#dbb780" fill-opacity="1"><g transform="translate(798.66121, 419.165742)"><g><path d="M 46.140625 -14.140625 C 46.398438 -13.835938 46.507812 -13.488281 46.46875 -13.09375 C 46.4375 -12.6875 46.253906 -12.351562 45.921875 -12.09375 C 45.773438 -11.988281 45.113281 -11.503906 43.9375 -10.640625 C 42.769531 -9.773438 41.195312 -8.75 39.21875 -7.5625 C 37.238281 -6.375 34.945312 -5.191406 32.34375 -4.015625 C 29.738281 -2.835938 26.953125 -1.863281 23.984375 -1.09375 C 21.015625 -0.320312 17.953125 0.0625 14.796875 0.0625 C 11.054688 0.09375 7.460938 -0.585938 4.015625 -1.984375 C 2.109375 -2.753906 0.769531 -3.648438 0 -4.671875 C -0.769531 -5.703125 -1.207031 -6.710938 -1.3125 -7.703125 C -1.425781 -8.691406 -1.410156 -9.535156 -1.265625 -10.234375 C -0.929688 -11.585938 -0.289062 -12.894531 0.65625 -14.15625 C 1.613281 -15.425781 2.734375 -16.5625 4.015625 -17.5625 C 5.296875 -18.570312 6.601562 -19.351562 7.9375 -19.90625 C 9.28125 -20.457031 10.503906 -20.695312 11.609375 -20.625 C 12.597656 -20.625 13.445312 -20.273438 14.15625 -19.578125 C 14.875 -18.878906 15.269531 -18.019531 15.34375 -17 C 15.382812 -16.40625 15.238281 -15.675781 14.90625 -14.8125 C 14.570312 -13.957031 13.726562 -13.085938 12.375 -12.203125 C 9.257812 -10.265625 5.847656 -9.40625 2.140625 -9.625 C 1.960938 -9.664062 1.800781 -9.628906 1.65625 -9.515625 C 1.507812 -9.398438 1.453125 -9.253906 1.484375 -9.078125 C 1.453125 -8.742188 1.488281 -8.320312 1.59375 -7.8125 C 1.707031 -7.300781 2.019531 -6.769531 2.53125 -6.21875 C 3.039062 -5.664062 3.898438 -5.148438 5.109375 -4.671875 C 7.609375 -3.609375 10.164062 -3.003906 12.78125 -2.859375 C 15.40625 -2.710938 17.984375 -2.875 20.515625 -3.34375 C 23.046875 -3.820312 25.472656 -4.492188 27.796875 -5.359375 C 30.128906 -6.222656 32.273438 -7.164062 34.234375 -8.1875 C 36.203125 -9.21875 37.914062 -10.191406 39.375 -11.109375 C 40.84375 -12.023438 42 -12.796875 42.84375 -13.421875 C 43.6875 -14.046875 44.109375 -14.359375 44.109375 -14.359375 C 44.441406 -14.609375 44.804688 -14.71875 45.203125 -14.6875 C 45.578125 -14.644531 45.890625 -14.460938 46.140625 -14.140625 Z M 3.40625 -12.984375 C 3.007812 -12.429688 3.054688 -12.125 3.546875 -12.0625 C 4.046875 -12.007812 4.753906 -12.117188 5.671875 -12.390625 C 6.585938 -12.671875 7.53125 -13.019531 8.5 -13.4375 C 9.46875 -13.863281 10.242188 -14.257812 10.828125 -14.625 C 11.972656 -15.394531 12.507812 -16.09375 12.4375 -16.71875 C 12.394531 -17.125 12.289062 -17.390625 12.125 -17.515625 C 11.957031 -17.640625 11.726562 -17.722656 11.4375 -17.765625 C 10.269531 -17.835938 8.914062 -17.425781 7.375 -16.53125 C 5.832031 -15.632812 4.507812 -14.453125 3.40625 -12.984375 Z M 3.40625 -12.984375 "/></g></g></g><g fill="#dbb780" fill-opacity="1"><g transform="translate(842.713042, 419.165742)"><g><path d="M 47.46875 -14.46875 C 47.71875 -14.175781 47.84375 -13.84375 47.84375 -13.46875 C 47.84375 -13.070312 47.695312 -12.726562 47.40625 -12.4375 C 45.5 -10.5625 43.375 -8.953125 41.03125 -7.609375 C 38.6875 -6.273438 36.253906 -5.164062 33.734375 -4.28125 C 31.222656 -3.40625 28.785156 -2.753906 26.421875 -2.328125 C 24.054688 -1.910156 21.90625 -1.703125 19.96875 -1.703125 C 17.875 -1.597656 15.859375 -1.984375 13.921875 -2.859375 C 12.597656 -3.628906 11.707031 -4.472656 11.25 -5.390625 C 10.789062 -6.304688 10.597656 -7.25 10.671875 -8.21875 C 10.742188 -9.195312 10.953125 -10.113281 11.296875 -10.96875 C 11.648438 -11.832031 11.988281 -12.578125 12.3125 -13.203125 C 12.394531 -13.347656 12.359375 -13.457031 12.203125 -13.53125 C 12.054688 -13.601562 11.800781 -13.546875 11.4375 -13.359375 C 9.425781 -12.265625 7.265625 -11.769531 4.953125 -11.875 C 3.921875 -11.84375 2.910156 -12.046875 1.921875 -12.484375 C 1.554688 -12.367188 1.191406 -12.40625 0.828125 -12.59375 C 0.234375 -12.882812 -0.0195312 -13.363281 0.0625 -14.03125 C -0.488281 -14.6875 -0.875 -15.4375 -1.09375 -16.28125 C -1.539062 -17.78125 -1.503906 -19.265625 -0.984375 -20.734375 C -0.472656 -22.203125 0.421875 -23.410156 1.703125 -24.359375 C 3.242188 -25.273438 4.453125 -25.3125 5.328125 -24.46875 C 5.441406 -24.363281 5.582031 -24.171875 5.75 -23.890625 C 5.914062 -23.617188 6.015625 -23.1875 6.046875 -22.59375 C 6.085938 -22.007812 5.96875 -21.1875 5.6875 -20.125 C 5.414062 -19.0625 4.894531 -17.671875 4.125 -15.953125 C 4.050781 -15.804688 4.101562 -15.566406 4.28125 -15.234375 C 4.46875 -14.898438 4.691406 -14.734375 4.953125 -14.734375 C 7.078125 -14.734375 9.070312 -15.265625 10.9375 -16.328125 C 11.5625 -16.660156 12.222656 -16.9375 12.921875 -17.15625 C 13.617188 -17.375 14.351562 -17.191406 15.125 -16.609375 C 15.894531 -16.023438 16.148438 -15.300781 15.890625 -14.4375 C 15.640625 -13.570312 15.3125 -12.738281 14.90625 -11.9375 C 14.0625 -10.207031 13.617188 -8.859375 13.578125 -7.890625 C 13.546875 -6.921875 14.15625 -6.066406 15.40625 -5.328125 C 16.09375 -4.929688 17.269531 -4.6875 18.9375 -4.59375 C 20.613281 -4.5 22.5625 -4.625 24.78125 -4.96875 C 27 -5.320312 29.332031 -5.890625 31.78125 -6.671875 C 34.238281 -7.460938 36.640625 -8.5 38.984375 -9.78125 C 41.335938 -11.070312 43.46875 -12.648438 45.375 -14.515625 C 45.664062 -14.773438 46.015625 -14.90625 46.421875 -14.90625 C 46.828125 -14.90625 47.175781 -14.757812 47.46875 -14.46875 Z M 1.59375 -17.484375 C 2.25 -18.878906 2.765625 -20.328125 3.140625 -21.828125 C 1.773438 -20.660156 1.257812 -19.210938 1.59375 -17.484375 Z M 1.59375 -17.484375 "/></g></g></g><g fill="#dbb780" fill-opacity="1"><g transform="translate(887.809765, 419.165742)"><g><path d="M 41.75 -13.8125 C 42.039062 -13.507812 42.1875 -13.160156 42.1875 -12.765625 C 42.144531 -12.359375 41.976562 -12.023438 41.6875 -11.765625 C 39.707031 -9.859375 37.570312 -8.445312 35.28125 -7.53125 C 32.988281 -6.613281 30.640625 -6.097656 28.234375 -5.984375 C 25.835938 -5.878906 23.457031 -6.070312 21.09375 -6.5625 C 18.726562 -7.0625 16.484375 -7.769531 14.359375 -8.6875 C 13.804688 -8.90625 13.253906 -8.890625 12.703125 -8.640625 C 12.148438 -8.378906 11.785156 -7.957031 11.609375 -7.375 C 11.273438 -6.125 10.78125 -4.945312 10.125 -3.84375 C 9.457031 -2.601562 8.519531 -1.597656 7.3125 -0.828125 C 6.101562 -0.0546875 4.785156 0.347656 3.359375 0.390625 C 2.835938 0.390625 2.34375 0.351562 1.875 0.28125 L 1.3125 0.0625 C -1.800781 -1.625 -2.753906 -6.15625 -1.546875 -13.53125 C -1.210938 -15.550781 -0.707031 -17.75 -0.03125 -20.125 C 0.644531 -22.507812 1.429688 -24.9375 2.328125 -27.40625 C 3.234375 -29.882812 4.21875 -32.269531 5.28125 -34.5625 C 6.34375 -36.851562 7.441406 -38.925781 8.578125 -40.78125 C 9.710938 -42.632812 10.828125 -44.140625 11.921875 -45.296875 C 13.023438 -46.453125 14.070312 -47.101562 15.0625 -47.25 C 15.832031 -47.46875 16.578125 -47.410156 17.296875 -47.078125 C 18.015625 -46.742188 18.554688 -46.234375 18.921875 -45.546875 C 19.328125 -44.628906 19.390625 -43.398438 19.109375 -41.859375 C 18.835938 -40.316406 18.304688 -38.5625 17.515625 -36.59375 C 16.722656 -34.632812 15.769531 -32.59375 14.65625 -30.46875 C 13.539062 -28.34375 12.335938 -26.222656 11.046875 -24.109375 C 9.765625 -22.003906 8.488281 -20.035156 7.21875 -18.203125 C 5.957031 -16.367188 4.796875 -14.78125 3.734375 -13.4375 C 2.671875 -12.101562 1.789062 -11.125 1.09375 -10.5 C 1.0625 -10.46875 1.023438 -10.429688 0.984375 -10.390625 C 0.804688 -8.773438 0.828125 -7.164062 1.046875 -5.5625 C 1.222656 -4.34375 1.863281 -3.515625 2.96875 -3.078125 C 4.101562 -2.640625 5.148438 -2.785156 6.109375 -3.515625 C 6.734375 -4.035156 7.265625 -4.660156 7.703125 -5.390625 C 8.429688 -6.640625 8.90625 -7.976562 9.125 -9.40625 C 9.269531 -10.613281 8.847656 -11.53125 7.859375 -12.15625 C 7.316406 -12.519531 6.804688 -12.882812 6.328125 -13.25 C 5.890625 -13.582031 5.707031 -14.039062 5.78125 -14.625 C 5.851562 -15.175781 6.160156 -15.546875 6.703125 -15.734375 C 7.441406 -16.054688 8.203125 -16.125 8.984375 -15.9375 C 9.773438 -15.757812 10.425781 -15.359375 10.9375 -14.734375 C 11.3125 -14.265625 11.585938 -13.734375 11.765625 -13.140625 C 13.742188 -12.003906 15.925781 -11.050781 18.3125 -10.28125 C 20.695312 -9.507812 23.144531 -9.039062 25.65625 -8.875 C 28.164062 -8.71875 30.628906 -9.015625 33.046875 -9.765625 C 35.472656 -10.515625 37.691406 -11.878906 39.703125 -13.859375 C 40.003906 -14.117188 40.351562 -14.25 40.75 -14.25 C 41.15625 -14.25 41.488281 -14.101562 41.75 -13.8125 Z M 15.515625 -44.390625 C 14.921875 -44.316406 14.191406 -43.753906 13.328125 -42.703125 C 12.472656 -41.660156 11.539062 -40.25 10.53125 -38.46875 C 9.519531 -36.695312 8.5 -34.679688 7.46875 -32.421875 C 6.445312 -30.171875 5.476562 -27.78125 4.5625 -25.25 C 3.644531 -22.71875 2.875 -20.1875 2.25 -17.65625 C 2.175781 -17.394531 2.269531 -17.210938 2.53125 -17.109375 C 2.75 -16.992188 2.929688 -17.046875 3.078125 -17.265625 C 5.753906 -20.972656 8.210938 -24.804688 10.453125 -28.765625 C 12.316406 -32.097656 13.695312 -34.847656 14.59375 -37.015625 C 15.5 -39.179688 16.050781 -40.847656 16.25 -42.015625 C 16.457031 -43.191406 16.46875 -43.945312 16.28125 -44.28125 C 16.28125 -44.3125 16.25 -44.34375 16.1875 -44.375 C 16.132812 -44.414062 16.035156 -44.4375 15.890625 -44.4375 C 15.742188 -44.4375 15.617188 -44.421875 15.515625 -44.390625 Z M 15.515625 -44.390625 "/></g></g></g><g fill="#dbb780" fill-opacity="1"><g transform="translate(926.691935, 419.165742)"><g><path d="M 45.984375 -13.359375 C 46.234375 -13.066406 46.359375 -12.71875 46.359375 -12.3125 C 46.328125 -11.914062 46.164062 -11.585938 45.875 -11.328125 C 45.757812 -11.222656 45.21875 -10.765625 44.25 -9.953125 C 43.28125 -9.148438 41.992188 -8.195312 40.390625 -7.09375 C 38.796875 -5.988281 37 -4.914062 35 -3.875 C 33.007812 -2.832031 30.90625 -2 28.6875 -1.375 C 26.46875 -0.75 24.25 -0.507812 22.03125 -0.65625 C 19.8125 -0.800781 17.691406 -1.535156 15.671875 -2.859375 C 14.128906 -3.847656 12.898438 -5.128906 11.984375 -6.703125 C 11.734375 -7.148438 11.332031 -7.390625 10.78125 -7.421875 C 10.269531 -7.460938 9.863281 -7.257812 9.5625 -6.8125 C 8.757812 -5.601562 7.878906 -4.457031 6.921875 -3.375 C 5.972656 -2.300781 5.003906 -1.429688 4.015625 -0.765625 C 3.023438 -0.109375 2.070312 0.238281 1.15625 0.28125 L 1.09375 0.28125 C 0.4375 0.238281 -0.171875 0.0234375 -0.734375 -0.359375 C -1.304688 -0.742188 -1.722656 -1.25 -1.984375 -1.875 C -3.078125 -4.625 -2.910156 -7.300781 -1.484375 -9.90625 C -0.273438 -12.425781 1.414062 -14.578125 3.59375 -16.359375 C 5.78125 -18.140625 8.25 -19.359375 11 -20.015625 C 11.550781 -20.160156 12.007812 -20.035156 12.375 -19.640625 C 12.78125 -19.234375 12.910156 -18.753906 12.765625 -18.203125 C 12.578125 -17.691406 12.207031 -17.363281 11.65625 -17.21875 C 9.34375 -16.664062 7.269531 -15.644531 5.4375 -14.15625 C 3.601562 -12.675781 2.175781 -10.851562 1.15625 -8.6875 C 0.125 -6.925781 -0.0546875 -5.09375 0.609375 -3.1875 C 0.828125 -2.820312 0.988281 -2.640625 1.09375 -2.640625 C 1.425781 -2.421875 1.921875 -2.648438 2.578125 -3.328125 C 3.242188 -4.003906 4 -4.960938 4.84375 -6.203125 C 5.6875 -7.453125 6.519531 -8.828125 7.34375 -10.328125 C 8.164062 -11.835938 8.90625 -13.304688 9.5625 -14.734375 C 9.863281 -15.398438 10.378906 -15.675781 11.109375 -15.5625 C 11.804688 -15.457031 12.207031 -15.054688 12.3125 -14.359375 C 12.3125 -14.316406 12.382812 -13.957031 12.53125 -13.28125 C 12.6875 -12.601562 12.945312 -11.769531 13.3125 -10.78125 C 13.675781 -9.789062 14.175781 -8.789062 14.8125 -7.78125 C 15.457031 -6.769531 16.273438 -5.9375 17.265625 -5.28125 C 18.953125 -4.144531 20.773438 -3.546875 22.734375 -3.484375 C 24.703125 -3.429688 26.675781 -3.722656 28.65625 -4.359375 C 30.632812 -5.003906 32.53125 -5.8125 34.34375 -6.78125 C 36.15625 -7.757812 37.773438 -8.757812 39.203125 -9.78125 C 40.640625 -10.8125 41.78125 -11.675781 42.625 -12.375 C 43.46875 -13.070312 43.90625 -13.4375 43.9375 -13.46875 C 44.238281 -13.726562 44.585938 -13.847656 44.984375 -13.828125 C 45.390625 -13.816406 45.722656 -13.660156 45.984375 -13.359375 Z M 45.984375 -13.359375 "/></g></g></g><g fill="#dbb780" fill-opacity="1"><g transform="translate(969.478783, 419.165742)"><g><path d="M 37.84375 -14.140625 C 38.132812 -13.835938 38.28125 -13.488281 38.28125 -13.09375 C 38.28125 -12.6875 38.132812 -12.335938 37.84375 -12.046875 C 37.726562 -11.929688 37.1875 -11.429688 36.21875 -10.546875 C 35.25 -9.671875 33.972656 -8.628906 32.390625 -7.421875 C 30.816406 -6.210938 29.019531 -5.003906 27 -3.796875 C 24.988281 -2.585938 22.875 -1.578125 20.65625 -0.765625 C 18.4375 0.0351562 16.207031 0.4375 13.96875 0.4375 C 12.613281 0.4375 11.296875 0.253906 10.015625 -0.109375 C 7.628906 -0.804688 5.640625 -2.242188 4.046875 -4.421875 C 2.453125 -6.609375 1.285156 -9.425781 0.546875 -12.875 C 0.472656 -13.050781 0.4375 -13.234375 0.4375 -13.421875 C 0.101562 -15.210938 -0.113281 -17.023438 -0.21875 -18.859375 C -0.332031 -21.242188 -0.285156 -23.738281 -0.078125 -26.34375 C 0.117188 -28.945312 0.457031 -31.503906 0.9375 -34.015625 C 1.414062 -36.523438 2.03125 -38.851562 2.78125 -41 C 3.53125 -43.144531 4.367188 -44.953125 5.296875 -46.421875 C 6.234375 -47.890625 7.273438 -48.878906 8.421875 -49.390625 C 9.179688 -49.722656 9.984375 -49.773438 10.828125 -49.546875 C 11.671875 -49.328125 12.351562 -48.890625 12.875 -48.234375 C 13.675781 -47.390625 14.101562 -46.171875 14.15625 -44.578125 C 14.21875 -42.984375 14.023438 -41.160156 13.578125 -39.109375 C 13.140625 -37.054688 12.535156 -34.890625 11.765625 -32.609375 C 10.992188 -30.335938 10.148438 -28.101562 9.234375 -25.90625 C 8.316406 -23.707031 7.414062 -21.65625 6.53125 -19.75 C 5.65625 -17.84375 4.910156 -16.242188 4.296875 -14.953125 C 3.703125 -13.742188 3.585938 -12.519531 3.953125 -11.28125 C 4.503906 -9.375 5.320312 -7.640625 6.40625 -6.078125 C 7.488281 -4.515625 8.960938 -3.441406 10.828125 -2.859375 C 12.554688 -2.347656 14.363281 -2.253906 16.25 -2.578125 C 18.132812 -2.910156 20.003906 -3.507812 21.859375 -4.375 C 23.710938 -5.238281 25.472656 -6.207031 27.140625 -7.28125 C 28.804688 -8.363281 30.28125 -9.414062 31.5625 -10.4375 C 32.851562 -11.46875 33.875 -12.332031 34.625 -13.03125 C 35.375 -13.726562 35.769531 -14.097656 35.8125 -14.140625 C 36.101562 -14.390625 36.445312 -14.515625 36.84375 -14.515625 C 37.21875 -14.515625 37.550781 -14.390625 37.84375 -14.140625 Z M 2.859375 -19.6875 C 2.898438 -19.4375 3.03125 -19.265625 3.25 -19.171875 C 3.46875 -19.078125 3.648438 -19.140625 3.796875 -19.359375 C 4.273438 -20.128906 4.820312 -21.265625 5.4375 -22.765625 C 6.0625 -24.273438 6.703125 -25.984375 7.359375 -27.890625 C 8.023438 -29.796875 8.632812 -31.738281 9.1875 -33.71875 C 9.738281 -35.695312 10.195312 -37.566406 10.5625 -39.328125 C 10.925781 -41.085938 11.144531 -42.585938 11.21875 -43.828125 C 11.289062 -45.078125 11.144531 -45.882812 10.78125 -46.25 C 10.445312 -46.625 10.132812 -46.8125 9.84375 -46.8125 C 9.738281 -46.8125 9.628906 -46.789062 9.515625 -46.75 C 8.960938 -46.488281 8.328125 -45.695312 7.609375 -44.375 C 6.898438 -43.0625 6.195312 -41.394531 5.5 -39.375 C 4.800781 -37.363281 4.1875 -35.179688 3.65625 -32.828125 C 3.125 -30.484375 2.765625 -28.164062 2.578125 -25.875 C 2.398438 -23.582031 2.492188 -21.519531 2.859375 -19.6875 Z M 2.859375 -19.6875 "/></g></g></g></svg>